#!OML:ASF X:\für Bonn\!DataBase\2005_08_11_Bastian_Final\c3d\Bastian.ASF
:FULLY-SPECIFIED
:DEGREES
31
root 1.03281 16.1553 0.119297 168.173 -7.58831 -172.575
lowerback 20.5977 -2.1244 2.43188
upperback 4.17314 -2.895 1.28963
thorax -7.0028 -1.74453 0.801185
lowerneck -9.96724 -6.78164 -6.41211
upperneck -1.16241 -9.04129 11.3003
head 2.09317 -4.42597 3.96194
rclavicle 4.27387e-015 1.03368e-014
rhumerus 75.9215 13.3288 11.8901
rradius 39.8148
rwrist -64.4044
rhand -44.346 -4.79617
rfingers 7.12502
rthumb -17.1543 -34.0589
lclavicle 4.27387e-015 1.03368e-014
lhumerus 71.4292 -18.3222 -11.9465
lradius 30.3284
lwrist 11.3114
lhand -42.7556 10.904
lfingers 7.12502
lthumb -15.623 40.2932
rfemur -11.9299 -6.84203 27.1294
rtibia 59.8085
rfoot -27.8129 -8.52397
rtoes -5.7944
lfemur -14.1814 2.17207 -10.8536
ltibia 64.9827
lfoot -21.8571 -10.6867
ltoes -13.4357
32
root 1.03227 16.0011 0.143541 168.073 -7.47749 -172.713
lowerback 21.0202 -2.05915 2.36773
upperback 4.18128 -2.82565 1.25684
thorax -7.21543 -1.71561 0.804801
lowerneck -9.80832 -6.75005 -6.2966
upperneck -1.53558 -9.00514 11.2692
head 1.94694 -4.42903 3.94869
rclavicle -1.09332e-014 1.39149e-014
rhumerus 75.8214 13.1069 11.8847
rradius 39.8407
rwrist -64.256
rhand -44.3612 -4.91347
rfingers 7.12502
rthumb -17.1689 -34.175
lclavicle -1.09332e-014 1.39149e-014
lhumerus 71.3094 -18.0966 -11.5092
lradius 30.298
lwrist 10.8859
lhand -42.766 11.0045
lfingers 7.12502
lthumb -15.633 40.3929
rfemur -12.9939 -6.97802 26.8998
rtibia 62.0129
rfoot -28.741 -8.34444
rtoes -6.00597
lfemur -15.3067 2.15439 -10.9456
ltibia 67.2384
lfoot -22.8765 -10.9707
ltoes -13.8993
33
root 1.03193 15.8362 0.16741 168.009 -7.37417 -172.93
lowerback 21.4045 -1.98676 2.20729
upperback 4.20241 -2.77176 1.21609
thorax -7.39005 -1.69227 0.855506
lowerneck -9.69611 -6.71683 -6.20986
upperneck -1.91214 -8.9612 11.2166
head 1.80666 -4.42763 3.93286
rclavicle -4.91992e-015 7.95139e-015
rhumerus 75.7649 12.7526 12.1185
rradius 39.926
rwrist -64.4144
rhand -44.3994 -4.96453
rfingers 7.12502
rthumb -17.2057 -34.2228
lclavicle -4.91992e-015 7.95139e-015
lhumerus 71.2266 -17.8067 -11.4497
lradius 30.3557
lwrist 10.8578
lhand -42.8406 11.1762
lfingers 7.12502
lthumb -15.7049 40.5589
rfemur -14.1561 -7.07887 26.5921
rtibia 64.3568
rfoot -29.7218 -8.14175
rtoes -6.16061
lfemur -16.4429 2.16555 -11.1198
ltibia 69.4863
lfoot -24.0201 -11.2832
ltoes -14.0127
34
root 1.0311 15.6629 0.191934 167.995 -7.26868 -173.128
lowerback 21.7342 -1.91435 2.10132
upperback 4.2119 -2.70613 1.15634
thorax -7.55167 -1.66286 0.848571
lowerneck -9.60707 -6.68906 -6.0691
upperneck -2.26686 -8.9336 11.1663
head 1.67586 -4.43428 3.90707
rclavicle -2.00773e-014 3.97569e-015
rhumerus 75.6465 12.3561 12.3515
rradius 40.044
rwrist -64.7047
rhand -44.4204 -4.97383
rfingers 7.12502
rthumb -17.2258 -34.2303
lclavicle -2.00773e-014 3.97569e-015
lhumerus 71.195 -17.4561 -11.6026
lradius 30.4985
lwrist 11.0951
lhand -42.9125 11.3384
lfingers 7.12502
lthumb -15.7741 40.7157
rfemur -15.427 -7.1579 26.3229
rtibia 66.8024
rfoot -30.7329 -7.97235
rtoes -6.14707
lfemur -17.6259 2.20737 -11.2688
ltibia 71.7268
lfoot -25.2168 -11.6756
ltoes -13.3521
35
root 1.03018 15.486 0.215506 168.024 -7.1383 -173.358
lowerback 22.0433 -1.83646 1.93396
upperback 4.19838 -2.64372 1.10727
thorax -7.72472 -1.63178 0.888045
lowerneck -9.54971 -6.6567 -5.98945
upperneck -2.55639 -8.8952 11.1425
head 1.57279 -4.43135 3.89741
rclavicle -1.35671e-014 -1.27222e-014
rhumerus 75.5852 11.8891 12.6928
rradius 40.1891
rwrist -65.1612
rhand -44.3989 -5.05578
rfingers 7.12502
rthumb -17.2051 -34.3141
lclavicle -1.35671e-014 -1.27222e-014
lhumerus 71.1553 -17.1019 -11.9881
lradius 30.6822
lwrist 11.6043
lhand -43.0582 11.5465
lfingers 7.12502
lthumb -15.9144 40.9127
rfemur -16.7815 -7.23622 26.0246
rtibia 69.3252
rfoot -31.7111 -7.81134
rtoes -6.26409
lfemur -18.8047 2.32765 -11.4485
ltibia 73.9409
lfoot -26.4533 -12.0502
ltoes -12.4502
36
root 1.02865 15.3008 0.241082 168.064 -7.01791 -173.53
lowerback 22.3511 -1.77091 1.80211
upperback 4.1839 -2.58882 1.09605
thorax -7.89775 -1.60518 0.950162
lowerneck -9.44467 -6.62313 -5.94858
upperneck -2.94988 -8.85561 10.7733
head 1.55788 -4.44263 4.20121
rclavicle -4.22417e-015 1.19271e-014
rhumerus 75.5269 11.391 12.9829
rradius 40.3334
rwrist -65.6281
rhand -44.3787 -5.02582
rfingers 7.12502
rthumb -17.1857 -34.2858
lclavicle -4.22417e-015 1.19271e-014
lhumerus 71.0347 -16.684 -12.2381
lradius 30.8758
lwrist 12.0798
lhand -43.1753 11.6751
lfingers 7.12502
lthumb -16.0272 41.0322
rfemur -18.1979 -7.29832 25.802
rtibia 71.9261
rfoot -32.6846 -7.67954
rtoes -6.38761
lfemur -19.959 2.4756 -11.5633
ltibia 76.1397
lfoot -27.6716 -12.5213
ltoes -11.1245
37
root 1.02708 15.1033 0.267726 168.154 -6.87326 -173.649
lowerback 22.6161 -1.7162 1.75556
upperback 4.14584 -2.5255 1.06905
thorax -8.07831 -1.57434 0.942327
lowerneck -9.40049 -6.59059 -5.78456
upperneck -3.23622 -8.82514 10.6766
head 1.43617 -4.44385 4.14193
rclavicle 1.22253e-014 -7.95139e-016
rhumerus 75.4434 10.902 13.1877
rradius 40.4784
rwrist -66.1313
rhand -44.3419 -4.98879
rfingers 7.12502
rthumb -17.1503 -34.2519
lclavicle 1.22253e-014 -7.95139e-016
lhumerus 70.9208 -16.2416 -12.5634
lradius 31.0712
lwrist 12.6006
lhand -43.3131 11.7678
lfingers 7.12502
lthumb -16.1599 41.1142
rfemur -19.725 -7.36212 25.6472
rtibia 74.6083
rfoot -33.6391 -7.56983
rtoes -6.5239
lfemur -21.1325 2.59188 -11.6465
ltibia 78.3679
lfoot -28.8863 -12.9581
ltoes -9.60402
